<mxfile host="app.diagrams.net" agent="Mozilla/5.0 (X11; Ubuntu; Linux x86_64; rv:136.0) Gecko/20100101 Firefox/136.0" version="28.0.9">
  <diagram name="Page-1" id="xIOkTCL3K24IWR9tix57">
    <mxGraphModel dx="786" dy="711" grid="1" gridSize="10" guides="1" tooltips="1" connect="1" arrows="1" fold="1" page="1" pageScale="1" pageWidth="827" pageHeight="1169" math="0" shadow="0">
      <root>
        <mxCell id="0" />
        <mxCell id="1" style="" parent="0" />
        <mxCell id="3SZMAM52sG9_Gdmyh299-129" value="" style="rounded=1;whiteSpace=wrap;html=1;shadow=0;treeFolding=0;treeMoving=0;fixDash=0;collapsible=0;recursiveResize=1;expand=1;backgroundOutline=0;movableLabel=0;autosize=0;fixedWidth=0;comic=0;" parent="1" vertex="1">
          <mxGeometry x="240" y="470" width="500" height="630" as="geometry" />
        </mxCell>
        <mxCell id="3SZMAM52sG9_Gdmyh299-130" value="" style="rounded=1;whiteSpace=wrap;html=1;shadow=0;treeFolding=0;treeMoving=0;fixDash=0;collapsible=0;recursiveResize=1;expand=1;backgroundOutline=0;movableLabel=0;autosize=0;fixedWidth=0;comic=0;" parent="1" vertex="1">
          <mxGeometry x="250" y="480" width="480" height="600" as="geometry" />
        </mxCell>
        <mxCell id="3SZMAM52sG9_Gdmyh299-131" value="" style="rounded=1;whiteSpace=wrap;html=1;shadow=0;glass=0;perimeterSpacing=1;" parent="1" vertex="1">
          <mxGeometry x="310" y="490" width="412.5" height="570" as="geometry" />
        </mxCell>
        <mxCell id="3SZMAM52sG9_Gdmyh299-132" style="edgeStyle=orthogonalEdgeStyle;rounded=0;orthogonalLoop=1;jettySize=auto;html=1;exitX=0.55;exitY=0.95;exitDx=0;exitDy=0;exitPerimeter=0;entryX=0.5;entryY=0;entryDx=0;entryDy=0;shadow=0;" parent="1" source="3SZMAM52sG9_Gdmyh299-133" target="3SZMAM52sG9_Gdmyh299-136" edge="1">
          <mxGeometry relative="1" as="geometry">
            <Array as="points">
              <mxPoint x="524" y="810" />
              <mxPoint x="390" y="810" />
            </Array>
          </mxGeometry>
        </mxCell>
        <mxCell id="3SZMAM52sG9_Gdmyh299-133" value="" style="ellipse;shape=cloud;whiteSpace=wrap;html=1;rotation=0;dashed=1;dashPattern=8 8;shadow=0;" parent="1" vertex="1">
          <mxGeometry x="290" y="460" width="426.25" height="347.5" as="geometry" />
        </mxCell>
        <mxCell id="3SZMAM52sG9_Gdmyh299-135" style="edgeStyle=orthogonalEdgeStyle;rounded=0;orthogonalLoop=1;jettySize=auto;html=1;exitX=1;exitY=0.5;exitDx=0;exitDy=0;entryX=0;entryY=0.5;entryDx=0;entryDy=0;shadow=0;" parent="1" source="3SZMAM52sG9_Gdmyh299-136" target="3SZMAM52sG9_Gdmyh299-139" edge="1">
          <mxGeometry relative="1" as="geometry" />
        </mxCell>
        <mxCell id="NnatkJBT9xsz4FV3scjZ-44" style="edgeStyle=orthogonalEdgeStyle;rounded=0;orthogonalLoop=1;jettySize=auto;html=1;exitX=0.5;exitY=1;exitDx=0;exitDy=0;" parent="1" source="3SZMAM52sG9_Gdmyh299-136" target="3SZMAM52sG9_Gdmyh299-141" edge="1">
          <mxGeometry relative="1" as="geometry" />
        </mxCell>
        <mxCell id="3SZMAM52sG9_Gdmyh299-136" value="Prometheus" style="html=1;whiteSpace=wrap;shadow=0;" parent="1" vertex="1">
          <mxGeometry x="349" y="840" width="80" height="50" as="geometry" />
        </mxCell>
        <mxCell id="3SZMAM52sG9_Gdmyh299-137" style="edgeStyle=orthogonalEdgeStyle;rounded=0;orthogonalLoop=1;jettySize=auto;html=1;exitX=1;exitY=0.25;exitDx=0;exitDy=0;entryX=0;entryY=0.75;entryDx=0;entryDy=0;shadow=0;" parent="1" source="3SZMAM52sG9_Gdmyh299-139" target="3SZMAM52sG9_Gdmyh299-142" edge="1">
          <mxGeometry relative="1" as="geometry" />
        </mxCell>
        <mxCell id="3SZMAM52sG9_Gdmyh299-138" style="edgeStyle=orthogonalEdgeStyle;rounded=0;orthogonalLoop=1;jettySize=auto;html=1;exitX=1;exitY=0.75;exitDx=0;exitDy=0;entryX=0;entryY=0.25;entryDx=0;entryDy=0;shadow=0;" parent="1" source="3SZMAM52sG9_Gdmyh299-139" target="3SZMAM52sG9_Gdmyh299-144" edge="1">
          <mxGeometry relative="1" as="geometry" />
        </mxCell>
        <mxCell id="NnatkJBT9xsz4FV3scjZ-47" style="edgeStyle=orthogonalEdgeStyle;rounded=0;orthogonalLoop=1;jettySize=auto;html=1;exitX=0.5;exitY=1;exitDx=0;exitDy=0;entryX=0.5;entryY=0;entryDx=0;entryDy=0;" parent="1" source="3SZMAM52sG9_Gdmyh299-139" target="NnatkJBT9xsz4FV3scjZ-46" edge="1">
          <mxGeometry relative="1" as="geometry" />
        </mxCell>
        <mxCell id="3SZMAM52sG9_Gdmyh299-139" value="&lt;div&gt;Grafana&lt;/div&gt;" style="html=1;whiteSpace=wrap;shadow=0;" parent="1" vertex="1">
          <mxGeometry x="463.13" y="840" width="80" height="50" as="geometry" />
        </mxCell>
        <mxCell id="NnatkJBT9xsz4FV3scjZ-43" style="edgeStyle=orthogonalEdgeStyle;rounded=0;orthogonalLoop=1;jettySize=auto;html=1;exitX=1;exitY=0.5;exitDx=0;exitDy=0;" parent="1" source="3SZMAM52sG9_Gdmyh299-141" target="NnatkJBT9xsz4FV3scjZ-41" edge="1">
          <mxGeometry relative="1" as="geometry" />
        </mxCell>
        <mxCell id="3SZMAM52sG9_Gdmyh299-141" value="TSDB" style="shape=cylinder;whiteSpace=wrap;html=1;boundedLbl=1;backgroundOutline=1;shadow=0;" parent="1" vertex="1">
          <mxGeometry x="358.75" y="960" width="60" height="80" as="geometry" />
        </mxCell>
        <mxCell id="3SZMAM52sG9_Gdmyh299-142" value="&lt;div&gt;Dashboard&lt;/div&gt;" style="shape=hexagon;perimeter=hexagonPerimeter2;whiteSpace=wrap;html=1;fixedSize=1;shadow=0;" parent="1" vertex="1">
          <mxGeometry x="579" y="807.5" width="120" height="40" as="geometry" />
        </mxCell>
        <mxCell id="3SZMAM52sG9_Gdmyh299-144" value="&lt;div&gt;Alertas&lt;/div&gt;" style="shape=hexagon;perimeter=hexagonPerimeter2;whiteSpace=wrap;html=1;fixedSize=1;shadow=0;" parent="1" vertex="1">
          <mxGeometry x="579" y="885" width="120" height="40" as="geometry" />
        </mxCell>
        <mxCell id="3SZMAM52sG9_Gdmyh299-145" value="&lt;div&gt;Hardware&lt;/div&gt;" style="text;html=1;align=center;verticalAlign=middle;resizable=0;points=[];autosize=1;strokeColor=none;fillColor=none;shadow=0;" parent="1" vertex="1">
          <mxGeometry x="544" y="1080" width="80" height="30" as="geometry" />
        </mxCell>
        <mxCell id="3SZMAM52sG9_Gdmyh299-146" value="Host OS" style="text;html=1;align=center;verticalAlign=middle;resizable=0;points=[];autosize=1;strokeColor=none;fillColor=none;shadow=0;" parent="1" vertex="1">
          <mxGeometry x="534" y="1060" width="70" height="30" as="geometry" />
        </mxCell>
        <mxCell id="3SZMAM52sG9_Gdmyh299-147" value="&lt;div&gt;&lt;b&gt;Visualização&lt;/b&gt;&lt;/div&gt;" style="html=1;dashed=0;whiteSpace=wrap;shape=mxgraph.dfd.start;shadow=0;" parent="1" vertex="1">
          <mxGeometry x="780" y="812.5" width="110" height="30" as="geometry" />
        </mxCell>
        <mxCell id="3SZMAM52sG9_Gdmyh299-148" style="edgeStyle=orthogonalEdgeStyle;rounded=0;orthogonalLoop=1;jettySize=auto;html=1;exitX=1;exitY=0.5;exitDx=0;exitDy=0;entryX=0;entryY=0.5;entryDx=0;entryDy=0;entryPerimeter=0;shadow=0;" parent="1" source="3SZMAM52sG9_Gdmyh299-142" target="3SZMAM52sG9_Gdmyh299-147" edge="1">
          <mxGeometry relative="1" as="geometry" />
        </mxCell>
        <mxCell id="3SZMAM52sG9_Gdmyh299-149" value="&lt;div&gt;Docker Engine&lt;/div&gt;" style="text;html=1;align=center;verticalAlign=middle;resizable=0;points=[];autosize=1;strokeColor=none;fillColor=none;shadow=0;" parent="1" vertex="1">
          <mxGeometry x="524" y="1040" width="100" height="30" as="geometry" />
        </mxCell>
        <mxCell id="3SZMAM52sG9_Gdmyh299-151" value="" style="rounded=1;whiteSpace=wrap;html=1;shadow=0;glass=0;perimeterSpacing=1;" parent="1" vertex="1">
          <mxGeometry x="780" y="873.75" width="110" height="150" as="geometry" />
        </mxCell>
        <mxCell id="3SZMAM52sG9_Gdmyh299-152" value="Email" style="html=1;dashed=0;whiteSpace=wrap;shape=mxgraph.dfd.start;shadow=0;" parent="1" vertex="1">
          <mxGeometry x="795" y="903.75" width="80" height="30" as="geometry" />
        </mxCell>
        <mxCell id="3SZMAM52sG9_Gdmyh299-153" value="&lt;div&gt;Aplicativos Terceiros&lt;/div&gt;" style="html=1;dashed=0;whiteSpace=wrap;shape=mxgraph.dfd.start;shadow=0;" parent="1" vertex="1">
          <mxGeometry x="795" y="943.75" width="80" height="30" as="geometry" />
        </mxCell>
        <mxCell id="3SZMAM52sG9_Gdmyh299-154" value="&lt;div&gt;etc.&lt;/div&gt;" style="html=1;dashed=0;whiteSpace=wrap;shape=mxgraph.dfd.start;shadow=0;" parent="1" vertex="1">
          <mxGeometry x="795" y="983.75" width="80" height="30" as="geometry" />
        </mxCell>
        <mxCell id="3SZMAM52sG9_Gdmyh299-155" value="&lt;div&gt;&lt;b&gt;Notificações&lt;/b&gt;&lt;/div&gt;" style="text;html=1;align=center;verticalAlign=middle;resizable=0;points=[];autosize=1;strokeColor=none;fillColor=none;shadow=0;" parent="1" vertex="1">
          <mxGeometry x="790" y="873.75" width="90" height="30" as="geometry" />
        </mxCell>
        <mxCell id="NnatkJBT9xsz4FV3scjZ-24" style="edgeStyle=orthogonalEdgeStyle;rounded=0;orthogonalLoop=1;jettySize=auto;html=1;exitX=0.5;exitY=1;exitDx=0;exitDy=0;entryX=0.5;entryY=0;entryDx=0;entryDy=0;" parent="1" source="3SZMAM52sG9_Gdmyh299-159" target="NnatkJBT9xsz4FV3scjZ-18" edge="1">
          <mxGeometry relative="1" as="geometry" />
        </mxCell>
        <mxCell id="NnatkJBT9xsz4FV3scjZ-54" style="rounded=0;orthogonalLoop=1;jettySize=auto;html=1;exitX=1;exitY=0;exitDx=0;exitDy=0;entryX=0;entryY=1;entryDx=0;entryDy=0;dashed=1;dashPattern=8 8;" parent="1" source="3SZMAM52sG9_Gdmyh299-159" target="NnatkJBT9xsz4FV3scjZ-49" edge="1">
          <mxGeometry relative="1" as="geometry" />
        </mxCell>
        <mxCell id="3SZMAM52sG9_Gdmyh299-159" value="&lt;font style=&quot;font-size: 11px;&quot;&gt;Dispositivo Virtual 1&lt;/font&gt;" style="rhombus;whiteSpace=wrap;html=1;shadow=0;" parent="1" vertex="1">
          <mxGeometry x="326" y="573.89" width="87.5" height="72.22" as="geometry" />
        </mxCell>
        <mxCell id="NnatkJBT9xsz4FV3scjZ-40" style="edgeStyle=orthogonalEdgeStyle;rounded=0;orthogonalLoop=1;jettySize=auto;html=1;exitX=0.5;exitY=1;exitDx=0;exitDy=0;entryX=0;entryY=0.5;entryDx=0;entryDy=0;" parent="1" source="NnatkJBT9xsz4FV3scjZ-1" target="3SZMAM52sG9_Gdmyh299-136" edge="1">
          <mxGeometry relative="1" as="geometry" />
        </mxCell>
        <mxCell id="NnatkJBT9xsz4FV3scjZ-1" value="Telegraf" style="ellipse;whiteSpace=wrap;html=1;aspect=fixed;shadow=0;fontSize=10;" parent="1" vertex="1">
          <mxGeometry x="259" y="780" width="40" height="40" as="geometry" />
        </mxCell>
        <mxCell id="NnatkJBT9xsz4FV3scjZ-25" style="edgeStyle=orthogonalEdgeStyle;rounded=0;orthogonalLoop=1;jettySize=auto;html=1;exitX=0.5;exitY=1;exitDx=0;exitDy=0;entryX=0.5;entryY=0;entryDx=0;entryDy=0;" parent="1" source="NnatkJBT9xsz4FV3scjZ-2" target="NnatkJBT9xsz4FV3scjZ-20" edge="1">
          <mxGeometry relative="1" as="geometry" />
        </mxCell>
        <mxCell id="NnatkJBT9xsz4FV3scjZ-55" style="edgeStyle=orthogonalEdgeStyle;rounded=0;orthogonalLoop=1;jettySize=auto;html=1;exitX=1;exitY=0;exitDx=0;exitDy=0;entryX=0.5;entryY=1;entryDx=0;entryDy=0;dashed=1;dashPattern=8 8;" parent="1" source="NnatkJBT9xsz4FV3scjZ-2" target="NnatkJBT9xsz4FV3scjZ-50" edge="1">
          <mxGeometry relative="1" as="geometry" />
        </mxCell>
        <mxCell id="NnatkJBT9xsz4FV3scjZ-2" value="&lt;font style=&quot;font-size: 11px;&quot;&gt;Dispositivo Virtual 2&lt;/font&gt;" style="rhombus;whiteSpace=wrap;html=1;shadow=0;" parent="1" vertex="1">
          <mxGeometry x="395" y="610" width="87.5" height="72.22" as="geometry" />
        </mxCell>
        <mxCell id="NnatkJBT9xsz4FV3scjZ-63" style="edgeStyle=orthogonalEdgeStyle;rounded=0;orthogonalLoop=1;jettySize=auto;html=1;exitX=0.5;exitY=0;exitDx=0;exitDy=0;entryX=0.5;entryY=1;entryDx=0;entryDy=0;dashed=1;dashPattern=8 8;" parent="1" source="NnatkJBT9xsz4FV3scjZ-3" target="NnatkJBT9xsz4FV3scjZ-51" edge="1">
          <mxGeometry relative="1" as="geometry" />
        </mxCell>
        <mxCell id="NnatkJBT9xsz4FV3scjZ-65" style="edgeStyle=orthogonalEdgeStyle;rounded=0;orthogonalLoop=1;jettySize=auto;html=1;exitX=0.5;exitY=1;exitDx=0;exitDy=0;entryX=0.5;entryY=0;entryDx=0;entryDy=0;" parent="1" edge="1">
          <mxGeometry relative="1" as="geometry">
            <mxPoint x="508" y="712.22" as="sourcePoint" />
            <mxPoint x="508.99" y="738.75" as="targetPoint" />
          </mxGeometry>
        </mxCell>
        <mxCell id="NnatkJBT9xsz4FV3scjZ-3" value="&lt;font style=&quot;font-size: 11px;&quot;&gt;Dispositivo Virtual 3&lt;/font&gt;" style="rhombus;whiteSpace=wrap;html=1;shadow=0;" parent="1" vertex="1">
          <mxGeometry x="465.25" y="640" width="87.5" height="72.22" as="geometry" />
        </mxCell>
        <mxCell id="NnatkJBT9xsz4FV3scjZ-29" style="edgeStyle=orthogonalEdgeStyle;rounded=0;orthogonalLoop=1;jettySize=auto;html=1;exitX=0.5;exitY=1;exitDx=0;exitDy=0;entryX=0.5;entryY=0;entryDx=0;entryDy=0;" parent="1" source="NnatkJBT9xsz4FV3scjZ-4" target="NnatkJBT9xsz4FV3scjZ-19" edge="1">
          <mxGeometry relative="1" as="geometry" />
        </mxCell>
        <mxCell id="NnatkJBT9xsz4FV3scjZ-58" style="rounded=0;orthogonalLoop=1;jettySize=auto;html=1;exitX=0;exitY=0;exitDx=0;exitDy=0;entryX=1;entryY=1;entryDx=0;entryDy=0;dashed=1;dashPattern=8 8;" parent="1" source="NnatkJBT9xsz4FV3scjZ-4" target="NnatkJBT9xsz4FV3scjZ-53" edge="1">
          <mxGeometry relative="1" as="geometry" />
        </mxCell>
        <mxCell id="NnatkJBT9xsz4FV3scjZ-4" value="&lt;font style=&quot;font-size: 11px;&quot;&gt;Dispositivo Virtual 5&lt;/font&gt;" style="rhombus;whiteSpace=wrap;html=1;shadow=0;" parent="1" vertex="1">
          <mxGeometry x="590" y="567.78" width="87.5" height="72.22" as="geometry" />
        </mxCell>
        <mxCell id="NnatkJBT9xsz4FV3scjZ-28" style="edgeStyle=orthogonalEdgeStyle;rounded=0;orthogonalLoop=1;jettySize=auto;html=1;exitX=0.5;exitY=1;exitDx=0;exitDy=0;entryX=0.5;entryY=0;entryDx=0;entryDy=0;" parent="1" source="NnatkJBT9xsz4FV3scjZ-5" target="NnatkJBT9xsz4FV3scjZ-21" edge="1">
          <mxGeometry relative="1" as="geometry" />
        </mxCell>
        <mxCell id="NnatkJBT9xsz4FV3scjZ-57" style="edgeStyle=orthogonalEdgeStyle;rounded=0;orthogonalLoop=1;jettySize=auto;html=1;exitX=0;exitY=0;exitDx=0;exitDy=0;entryX=0.5;entryY=1;entryDx=0;entryDy=0;dashed=1;dashPattern=8 8;" parent="1" source="NnatkJBT9xsz4FV3scjZ-5" target="NnatkJBT9xsz4FV3scjZ-52" edge="1">
          <mxGeometry relative="1" as="geometry" />
        </mxCell>
        <mxCell id="NnatkJBT9xsz4FV3scjZ-5" value="&lt;div&gt;&lt;font style=&quot;font-size: 11px;&quot;&gt;Dispositivo Virtual 4&lt;/font&gt;&lt;/div&gt;" style="rhombus;whiteSpace=wrap;html=1;shadow=0;" parent="1" vertex="1">
          <mxGeometry x="536.5" y="610" width="87.5" height="72.22" as="geometry" />
        </mxCell>
        <mxCell id="NnatkJBT9xsz4FV3scjZ-14" value="Iperf3" style="rhombus;whiteSpace=wrap;html=1;shadow=0;" parent="1" vertex="1">
          <mxGeometry x="465.25" y="502" width="73.75" height="60" as="geometry" />
        </mxCell>
        <mxCell id="NnatkJBT9xsz4FV3scjZ-17" value="Telegraf" style="ellipse;whiteSpace=wrap;html=1;aspect=fixed;shadow=0;fontSize=10;" parent="1" vertex="1">
          <mxGeometry x="489.99" y="738.75" width="40" height="40" as="geometry" />
        </mxCell>
        <mxCell id="NnatkJBT9xsz4FV3scjZ-18" value="Telegraf" style="ellipse;whiteSpace=wrap;html=1;aspect=fixed;shadow=0;fontSize=10;" parent="1" vertex="1">
          <mxGeometry x="350" y="672.22" width="40" height="40" as="geometry" />
        </mxCell>
        <mxCell id="NnatkJBT9xsz4FV3scjZ-19" value="Telegraf" style="ellipse;whiteSpace=wrap;html=1;aspect=fixed;shadow=0;fontSize=10;" parent="1" vertex="1">
          <mxGeometry x="613.75" y="678.33" width="40" height="40" as="geometry" />
        </mxCell>
        <mxCell id="NnatkJBT9xsz4FV3scjZ-20" value="Telegraf" style="ellipse;whiteSpace=wrap;html=1;aspect=fixed;shadow=0;fontSize=10;" parent="1" vertex="1">
          <mxGeometry x="418.75" y="698.75" width="40" height="40" as="geometry" />
        </mxCell>
        <mxCell id="NnatkJBT9xsz4FV3scjZ-21" value="Telegraf" style="ellipse;whiteSpace=wrap;html=1;aspect=fixed;shadow=0;fontSize=10;" parent="1" vertex="1">
          <mxGeometry x="560.25" y="718.33" width="40" height="40" as="geometry" />
        </mxCell>
        <mxCell id="NnatkJBT9xsz4FV3scjZ-31" style="edgeStyle=orthogonalEdgeStyle;rounded=0;orthogonalLoop=1;jettySize=auto;html=1;exitX=0.5;exitY=1;exitDx=0;exitDy=0;entryX=0.19;entryY=0.809;entryDx=0;entryDy=0;entryPerimeter=0;" parent="1" source="NnatkJBT9xsz4FV3scjZ-18" target="3SZMAM52sG9_Gdmyh299-133" edge="1">
          <mxGeometry relative="1" as="geometry" />
        </mxCell>
        <mxCell id="NnatkJBT9xsz4FV3scjZ-33" style="edgeStyle=orthogonalEdgeStyle;rounded=0;orthogonalLoop=1;jettySize=auto;html=1;exitX=0.5;exitY=1;exitDx=0;exitDy=0;entryX=0.352;entryY=0.86;entryDx=0;entryDy=0;entryPerimeter=0;" parent="1" source="NnatkJBT9xsz4FV3scjZ-20" target="3SZMAM52sG9_Gdmyh299-133" edge="1">
          <mxGeometry relative="1" as="geometry" />
        </mxCell>
        <mxCell id="NnatkJBT9xsz4FV3scjZ-35" style="edgeStyle=orthogonalEdgeStyle;rounded=0;orthogonalLoop=1;jettySize=auto;html=1;exitX=0.5;exitY=1;exitDx=0;exitDy=0;entryX=0.68;entryY=0.918;entryDx=0;entryDy=0;entryPerimeter=0;" parent="1" source="NnatkJBT9xsz4FV3scjZ-21" target="3SZMAM52sG9_Gdmyh299-133" edge="1">
          <mxGeometry relative="1" as="geometry" />
        </mxCell>
        <mxCell id="NnatkJBT9xsz4FV3scjZ-37" style="edgeStyle=orthogonalEdgeStyle;rounded=0;orthogonalLoop=1;jettySize=auto;html=1;exitX=0.5;exitY=1;exitDx=0;exitDy=0;entryX=0.516;entryY=0.953;entryDx=0;entryDy=0;entryPerimeter=0;" parent="1" source="NnatkJBT9xsz4FV3scjZ-17" target="3SZMAM52sG9_Gdmyh299-133" edge="1">
          <mxGeometry relative="1" as="geometry" />
        </mxCell>
        <mxCell id="NnatkJBT9xsz4FV3scjZ-39" style="edgeStyle=orthogonalEdgeStyle;rounded=0;orthogonalLoop=1;jettySize=auto;html=1;exitX=0.5;exitY=1;exitDx=0;exitDy=0;entryX=0.8;entryY=0.8;entryDx=0;entryDy=0;entryPerimeter=0;" parent="1" source="NnatkJBT9xsz4FV3scjZ-19" target="3SZMAM52sG9_Gdmyh299-133" edge="1">
          <mxGeometry relative="1" as="geometry" />
        </mxCell>
        <mxCell id="NnatkJBT9xsz4FV3scjZ-45" style="edgeStyle=orthogonalEdgeStyle;rounded=0;orthogonalLoop=1;jettySize=auto;html=1;exitX=0.5;exitY=0;exitDx=0;exitDy=0;entryX=0.5;entryY=1;entryDx=0;entryDy=0;" parent="1" source="NnatkJBT9xsz4FV3scjZ-41" target="3SZMAM52sG9_Gdmyh299-144" edge="1">
          <mxGeometry relative="1" as="geometry" />
        </mxCell>
        <mxCell id="NnatkJBT9xsz4FV3scjZ-41" value="Alertmanager" style="html=1;whiteSpace=wrap;shadow=0;" parent="1" vertex="1">
          <mxGeometry x="599" y="975" width="80" height="50" as="geometry" />
        </mxCell>
        <mxCell id="NnatkJBT9xsz4FV3scjZ-46" value="SQLite" style="shape=cylinder;whiteSpace=wrap;html=1;boundedLbl=1;backgroundOutline=1;shadow=0;" parent="1" vertex="1">
          <mxGeometry x="478.63" y="915" width="49" height="67.5" as="geometry" />
        </mxCell>
        <mxCell id="NnatkJBT9xsz4FV3scjZ-66" style="rounded=0;orthogonalLoop=1;jettySize=auto;html=1;exitX=1;exitY=0;exitDx=0;exitDy=0;entryX=0;entryY=0.5;entryDx=0;entryDy=0;flowAnimation=0;curved=0;dashed=1;startArrow=classic;startFill=1;dashPattern=8 8;" parent="1" source="NnatkJBT9xsz4FV3scjZ-49" target="NnatkJBT9xsz4FV3scjZ-14" edge="1">
          <mxGeometry relative="1" as="geometry" />
        </mxCell>
        <mxCell id="NnatkJBT9xsz4FV3scjZ-49" value="Iperf3" style="ellipse;whiteSpace=wrap;html=1;aspect=fixed;shadow=0;fontSize=10;" parent="1" vertex="1">
          <mxGeometry x="400" y="554" width="30" height="30" as="geometry" />
        </mxCell>
        <mxCell id="NnatkJBT9xsz4FV3scjZ-67" style="rounded=0;orthogonalLoop=1;jettySize=auto;html=1;exitX=1;exitY=0;exitDx=0;exitDy=0;entryX=0;entryY=1;entryDx=0;entryDy=0;flowAnimation=0;curved=0;dashed=1;startArrow=classic;startFill=1;dashPattern=8 8;" parent="1" source="NnatkJBT9xsz4FV3scjZ-50" target="NnatkJBT9xsz4FV3scjZ-14" edge="1">
          <mxGeometry relative="1" as="geometry" />
        </mxCell>
        <mxCell id="NnatkJBT9xsz4FV3scjZ-50" value="Iperf3" style="ellipse;whiteSpace=wrap;html=1;aspect=fixed;shadow=0;fontSize=10;" parent="1" vertex="1">
          <mxGeometry x="443.12" y="572.89" width="30" height="30" as="geometry" />
        </mxCell>
        <mxCell id="NnatkJBT9xsz4FV3scjZ-68" style="rounded=0;orthogonalLoop=1;jettySize=auto;html=1;exitX=0.5;exitY=0;exitDx=0;exitDy=0;entryX=0.5;entryY=1;entryDx=0;entryDy=0;flowAnimation=0;curved=0;dashed=1;startArrow=classic;startFill=1;dashPattern=8 8;" parent="1" source="NnatkJBT9xsz4FV3scjZ-51" target="NnatkJBT9xsz4FV3scjZ-14" edge="1">
          <mxGeometry relative="1" as="geometry" />
        </mxCell>
        <mxCell id="NnatkJBT9xsz4FV3scjZ-51" value="Iperf3" style="ellipse;whiteSpace=wrap;html=1;aspect=fixed;shadow=0;fontSize=10;" parent="1" vertex="1">
          <mxGeometry x="494" y="587.89" width="30" height="30" as="geometry" />
        </mxCell>
        <mxCell id="NnatkJBT9xsz4FV3scjZ-69" style="rounded=0;orthogonalLoop=1;jettySize=auto;html=1;exitX=0;exitY=0;exitDx=0;exitDy=0;entryX=1;entryY=1;entryDx=0;entryDy=0;flowAnimation=0;curved=0;dashed=1;startArrow=classic;startFill=1;dashPattern=8 8;" parent="1" source="NnatkJBT9xsz4FV3scjZ-52" target="NnatkJBT9xsz4FV3scjZ-14" edge="1">
          <mxGeometry relative="1" as="geometry" />
        </mxCell>
        <mxCell id="NnatkJBT9xsz4FV3scjZ-52" value="Iperf3" style="ellipse;whiteSpace=wrap;html=1;aspect=fixed;shadow=0;fontSize=10;" parent="1" vertex="1">
          <mxGeometry x="543.13" y="579" width="30" height="30" as="geometry" />
        </mxCell>
        <mxCell id="NnatkJBT9xsz4FV3scjZ-70" style="rounded=0;orthogonalLoop=1;jettySize=auto;html=1;exitX=0;exitY=0;exitDx=0;exitDy=0;entryX=1;entryY=0.5;entryDx=0;entryDy=0;flowAnimation=0;curved=0;dashed=1;startArrow=classic;startFill=1;dashPattern=8 8;" parent="1" source="NnatkJBT9xsz4FV3scjZ-53" target="NnatkJBT9xsz4FV3scjZ-14" edge="1">
          <mxGeometry relative="1" as="geometry" />
        </mxCell>
        <mxCell id="NnatkJBT9xsz4FV3scjZ-53" value="Iperf3" style="ellipse;whiteSpace=wrap;html=1;aspect=fixed;shadow=0;fontSize=10;" parent="1" vertex="1">
          <mxGeometry x="573.13" y="542.89" width="30" height="30" as="geometry" />
        </mxCell>
        <mxCell id="7DoHHPpg7aaA5cZfHPbh-3" style="edgeStyle=orthogonalEdgeStyle;rounded=0;orthogonalLoop=1;jettySize=auto;html=1;exitX=1;exitY=0.5;exitDx=0;exitDy=0;entryX=0.002;entryY=0.213;entryDx=0;entryDy=0;entryPerimeter=0;" edge="1" parent="1" source="3SZMAM52sG9_Gdmyh299-144" target="3SZMAM52sG9_Gdmyh299-151">
          <mxGeometry relative="1" as="geometry" />
        </mxCell>
      </root>
    </mxGraphModel>
  </diagram>
</mxfile>
